PathFileType	4	(X/Y/Z)	pose2sim_0-766.trc
DataRate	CameraRate	NumFrames	NumMarkers	Units	OrigDataRate	OrigDataStartFrame	OrigNumFrames
50	50	6	22	m	50	575	767
Frame#	Time	Hip			RHip			RKnee			RAnkle			RBigToe			RSmallToe			RHeel			LHip			LKnee			LAnkle			LBigToe			LSmallToe			LHeel			Neck			Head			Nose			RShoulder			RElbow			RWrist			LShoulder			LElbow			LWrist			
		X1	Y1	Z1	X2	Y2	Z2	X3	Y3	Z3	X4	Y4	Z4	X5	Y5	Z5	X6	Y6	Z6	X7	Y7	Z7	X8	Y8	Z8	X9	Y9	Z9	X10	Y10	Z10	X11	Y11	Z11	X12	Y12	Z12	X13	Y13	Z13	X14	Y14	Z14	X15	Y15	Z15	X16	Y16	Z16	X17	Y17	Z17	X18	Y18	Z18	X19	Y19	Z19	X20	Y20	Z20	X21	Y21	Z21	X22	Y22	Z22	
575	11.5	0.12292508626283528	0.8558487860907574	-0.03685297605708364	0.024616875483557767	0.8417652744871142	-0.039789277767075894	0.009660451314733944	0.45553616779490114	-0.07467649500522314	-0.003349455559646792	0.0824598450772085	-0.08885500522718025	-0.03719975333322796	0.034558501611285576	0.05594390628570964	-0.07474606241463272	0.03622012868984805	0.006161489578037114	0.0114523686184331	0.043496601289066614	-0.11637971163986084	0.22617056613729186	0.8431544802112501	-0.044307439865396564	0.23694896904885054	0.4601709940334118	-0.07835197899963287	0.2545923596382595	0.08430371950549038	-0.08248504753256881	0.29903483324867686	0.034343236678917255	0.0721070734895106	0.3337620140671067	0.03799283248889213	0.017130060800447072	0.2403608342553591	0.04058457313164599	-0.10979205630594989	0.12515838694842607	1.3984543938875844	-0.004923075689729257	0.1333010107082675	1.6216053600826894	0.006125926578346093	0.12966285996370694	1.5089443300424699	0.12780667072848514	-0.019806302245520956	1.3027503191554775	-0.01259242799654484	-0.09716481054927074	1.0530035121385461	0.003213346737740587	-0.1919090346851884	0.8707297825769229	0.11297865086504552	0.2683286416860889	1.3081183665986076	-0.02174380858257442	0.35206343558667663	1.0743065059546497	0.011058698353378502	0.433474372856766	0.885912151147629	0.11553418927598305
576	11.52	0.1307455492053106	0.8642571206980414	-0.0339839883158398	0.03361254176515085	0.8483228331291854	-0.03000916390346331	0.010065010653312847	0.4606989320743037	-0.07135119334596034	-0.0029002065881483445	0.07971635703432642	-0.08858097847977504	-0.04220042696304112	0.033103086768347494	0.07179434858226999	-0.0781007337505188	0.031208183640327864	0.0163637254378208	0.010998146468259773	0.03360811783402627	-0.11479488996517073	0.22884116841784596	0.850357711537295	-0.03699643071612007	0.2373755318276051	0.46235772368409783	-0.07234669909614806	0.25600446931105963	0.07991973434714456	-0.0823224456343919	0.297547593185731	0.033221245584418996	0.07562278264423822	0.32952020410116933	0.03177682543094622	0.02114234848971419	0.2429308969362975	0.036703586785583164	-0.1070878549128098	0.12397249932340114	1.4013912037015486	-0.00977101011462278	0.1359435043820431	1.6197548254801621	1.8358018951943672e-05	0.12681017090195737	1.5145915493703186	0.12200865901034445	-0.02111382344906215	1.2972091978621565	-0.005049686527455737	-0.10064668459910955	1.04943328773116	0.007389167018637153	-0.1941761681256531	0.8810221023854878	0.13778425956299176	0.2679928413626428	1.310315974141417	-0.02436445536950981	0.35307345062949075	1.0762148116985313	0.009731538816561743	0.43942474260214787	0.8933067257469144	0.12112394502123963
577	11.54	0.12519725831124856	0.8557435472678162	-0.0384367922733969	0.025325187930373073	0.8416978012900604	-0.04066324400157526	0.01091215493323601	0.4547877645893705	-0.07002416394627413	-0.0019428066775445906	0.07992406393374414	-0.08460328769051413	-0.036860730218336586	0.04014912055847584	0.05493695252530542	-0.07219638092926177	0.039444621350730465	0.0014687306089999788	0.009757307644136851	0.0409653715569816	-0.11464395768318422	0.22998074466377544	0.8429130485635989	-0.04052295111590741	0.24088989353542098	0.4570452258103732	-0.07841977265621027	0.25335107135198165	0.08210062741441955	-0.08058920409803699	0.29264098063606137	0.03859149864846869	0.0703560566016895	0.3312971587256734	0.0395597385248349	0.015048765640894263	0.2421907822023727	0.03939806148393234	-0.10573428075553677	0.12332611086883975	1.398465677926806	-0.010897626811307544	0.13540924815885766	1.622845914113924	0.0031770137493926575	0.13553488636104685	1.5097371191902222	0.13220847038092234	-0.022744168705377574	1.3017560600054559	-0.01656074858521538	-0.09709412608128433	1.05365631863227	0.0010563151983663404	-0.19463637136985604	0.8955162675903752	0.1373105337547796	0.2680286258439075	1.3074045115912727	-0.03176490925170306	0.3597352847514473	1.0772287587319036	6.124248008307641e-05	0.441114564596592	0.9077662951976804	0.1319271457335862
578	11.56	0.12517326590694353	0.855797997091533	-0.04049595132578165	0.02672581377068196	0.8429078076618133	-0.04540943088981791	0.01066614377298657	0.45571691104228007	-0.0704473361844277	-0.0023289719454262993	0.0803696629973519	-0.08613912177464565	-0.03568986434518267	0.039125061257304104	0.052315977017908286	-0.0714129449321441	0.03975192698823973	0.004237222724708017	0.009785319470283967	0.04135553193266176	-0.1134962513564104	0.22878227509353777	0.8429383825656315	-0.04335013491033563	0.24105745081774269	0.4567550582599337	-0.077201370431843	0.2545667584806832	0.08261874001139013	-0.07976262950184283	0.2937213104131502	0.037850821176825394	0.06584082552582028	0.3315175546769502	0.03882126455923651	0.01544043942172531	0.2435514230549852	0.03972819986671942	-0.10503038977571116	0.12448302234375654	1.399015142138528	-0.014331349007693717	0.13529146122231253	1.6223329692479311	0.0029064632231737973	0.13183645778140904	1.5094130136030042	0.13067291995078265	-0.02174108814156944	1.3011144056793318	-0.020482696172335585	-0.09741871728354781	1.0569792934469555	0.0005352246914201846	-0.1963068027005944	0.9084962784599974	0.13801810479981277	0.2668090454163416	1.3079026627251849	-0.03435371002816039	0.36213199919993594	1.0795299222174544	-0.007723727963613916	0.44398655090848926	0.9200954753241813	0.13862695677048067
579	11.58	0.1250645305761757	0.8576075169465552	-0.04254133339137107	0.0282451967269612	0.8410167273515717	-0.04063839835499977	0.00945796361515946	0.45301893098250984	-0.07206740038300355	-0.0035922706637811206	0.07960932991818667	-0.08305111994027213	-0.03963444761158238	0.034436700458961446	0.058308377870042755	-0.07645586898081821	0.03783720930863177	0.0073664518198628395	0.012490260076011377	0.03907050090154548	-0.1069806520335551	0.2298512224758766	0.8423443479210574	-0.04191933119354192	0.24077109305901204	0.4565114399699141	-0.0781086453905486	0.25408119835472914	0.08560226373493077	-0.08271060025545014	0.2953353990687876	0.03846992761094666	0.06453446627611394	0.3315167994650714	0.040479241386635056	0.01386905911071535	0.24298314708797858	0.042302672486280585	-0.10109298170690759	0.12293891088652256	1.398634361667867	-0.01995761469630784	0.1351754641632159	1.6230391599148217	0.00047049947900551324	0.1332848312215115	1.5102385260945368	0.11390471533715645	-0.024231697059694305	1.3001013689293295	-0.02377019228392809	-0.09614178954361802	1.0563727687572788	-0.0013298106962505874	-0.2012074415318892	0.9250656507324199	0.1537954718073571	0.2652525385122773	1.3090962806244972	-0.03332131995773698	0.36570427212776	1.082533313310575	-0.013190191741557456	0.44497001482873466	0.9371545600604669	0.1415003609520113
580	11.6	0.12800819446987494	0.8618184549485461	-0.04290403162614806	0.028737435358012486	0.8440323355858987	-0.03968431693373201	0.012305468491761534	0.4593366304503448	-0.07228475410465553	-0.0026006963326091763	0.0810782767955047	-0.08982319088424873	-0.04184126079164848	0.03151738385756015	0.07158064664210623	-0.07725986854728276	0.02987552203576035	0.021365961982089086	0.013237301683768235	0.03465904966901334	-0.11639341633789695	0.22607949299410982	0.8449580303914709	-0.03998219240259164	0.23918241061509052	0.46089965488458606	-0.07423970423916391	0.2547090940844449	0.07998112244272156	-0.08870930427130143	0.2957047584551808	0.031020687608068004	0.07912838243931619	0.3257628040790112	0.029299325948296862	0.025314649018737614	0.24047946591508157	0.036458014731623675	-0.11359771818623922	0.1207038208313616	1.3988474023120012	-0.017817428854018748	0.13258113074856578	1.6203064851477378	-0.007862080561507095	0.1306903711744156	1.5110000410382443	0.09843137704394285	-0.025943037972732765	1.298153048121047	-0.024588571384509435	-0.100665176199988	1.0570388329798504	-0.0010707677658996972	-0.19776840721510808	0.9451558525747554	0.17961887344163305	0.2656462447369481	1.310413445172393	-0.03381328576069515	0.3628864302865891	1.0887270524865293	-0.0038279384700888523	0.4420949660635949	0.9557245164840971	0.1543851737168069
